<?xml version="1.0" encoding="UTF-8" standalone="no"?>
<svg
   version="1.0"
   width="100"
   height="50"
   viewBox="0 0 100 50"
   preserveAspectRatio="xMidYMid meet"
   id="svg8"
   xmlns="http://www.w3.org/2000/svg"
   xmlns:svg="http://www.w3.org/2000/svg">
  <metadata
     id="metadata2">
Created by potrace 1.15, written by Peter Selinger 2001-2017
</metadata>
  <g
     transform="matrix(0.007,0,0,-0.0045,-0.05,50)"
     fill="grey"
     stroke="none"
     id="g6">
    <path
       d="m 3449,10837 c -20,-8 -49,-23 -65,-35 C 3325,10759 41,7464 24,7430 1,7385 0,7287 22,7240 c 8,-19 431,-533 939,-1141 508,-608 1228,-1470 1599,-1915 371,-445 702,-840 734,-878 75,-87 142,-122 218,-113 68,8 126,43 163,97 l 30,45 3,1166 2,1166 78,17 c 328,69 819,116 1217,116 1668,-1 3233,-594 4555,-1725 1068,-914 1997,-2192 2736,-3768 117,-250 150,-289 256,-303 68,-9 126,12 179,65 74,73 77,95 45,346 -256,1983 -832,3673 -1689,4955 -571,853 -1262,1536 -2077,2052 -924,585 -2011,947 -3190,1063 -297,29 -484,37 -840,37 -443,-1 -800,-24 -1157,-76 l -83,-12 -2,1131 c -3,1030 -4,1133 -20,1160 -21,39 -65,83 -101,102 -41,21 -125,26 -168,10 z"
       id="path4" />
  </g>
</svg>
